<?xml version="1.0" encoding="UTF-8"?>
<svg id="Layer_1" xmlns="http://www.w3.org/2000/svg" xmlns:xlink="http://www.w3.org/1999/xlink" version="1.1" viewBox="0 0 100 100">
  <!-- Generator: Adobe Illustrator 30.3.0, SVG Export Plug-In . SVG Version: 2.1.3 Build 182)  -->
  <defs>
    <style>
      .st0 {
        fill: url(#linear-gradient);
      }

      .st1 {
        fill: #fff;
      }
    </style>
    <linearGradient id="linear-gradient" x1="-252.45" y1="443.55" x2="-251.45" y2="442.55" gradientTransform="translate(25245 44355) scale(100 -100)" gradientUnits="userSpaceOnUse">
      <stop offset="0" stop-color="#00d4aa"/>
      <stop offset="1" stop-color="#6366f1"/>
    </linearGradient>
  </defs>
  <rect class="st0" width="100" height="100" rx="16" ry="16"/>
  <g>
    <path class="st1" d="M52.93,74.53v-7.79h12.99c3.14,0,5.47-.56,7.02-1.68,1.54-1.12,2.32-3.11,2.32-5.97,0-1.78-.44-3.11-1.33-4-.84-.94-1.9-1.64-3.16-2.11-1.26-.51-2.53-.98-3.79-1.4-1.59-.56-3.25-1.22-4.98-1.97-1.68-.8-3.25-1.85-4.7-3.16-1.4-1.36-2.55-3.16-3.44-5.4-.89-2.29-1.33-5.22-1.33-8.77v-6.88h28.64v7.79h-20.57c0,2.11.26,3.84.77,5.19.56,1.31,1.57,2.46,3.02,3.44,1.45.94,3.56,1.9,6.32,2.88,1.17.42,2.48.96,3.93,1.61,1.45.61,2.83,1.45,4.14,2.53,1.36,1.03,2.46,2.39,3.3,4.07.89,1.68,1.33,3.77,1.33,6.25,0,3.6-.84,6.55-2.53,8.84-1.68,2.25-3.91,3.91-6.67,4.98-2.76,1.03-5.78,1.54-9.05,1.54h-12.21Z"/>
    <path class="st1" d="M48.19,74.6c-2.95-.19-5.9-.7-8.84-1.54-2.9-.84-5.57-2.15-8-3.93-2.39-1.82-4.33-4.19-5.83-7.09-1.45-2.95-2.18-6.57-2.18-10.88v-17.97h-6.74v-7.79h29.48v7.79h-14.6v17.9c0,2.99.47,5.5,1.4,7.51.98,1.97,2.27,3.53,3.86,4.7,1.64,1.17,3.44,2.04,5.4,2.6,2.01.56,4.02.91,6.04,1.05v7.65Z"/>
  </g>
</svg>