<?xml version="1.0" encoding="UTF-8"?>
<svg id="Layer_1" xmlns="http://www.w3.org/2000/svg" xmlns:xlink="http://www.w3.org/1999/xlink" version="1.1" viewBox="0 0 100 100">
  <!-- Generator: Adobe Illustrator 30.3.0, SVG Export Plug-In . SVG Version: 2.1.3 Build 182)  -->
  <defs>
    <style>
      .st0 {
        fill: url(#linear-gradient);
      }

      .st1 {
        fill: #fff;
      }
    </style>
    <linearGradient id="linear-gradient" x1="-252.45" y1="443.55" x2="-251.45" y2="442.55" gradientTransform="translate(25245 44355) scale(100 -100)" gradientUnits="userSpaceOnUse">
      <stop offset="0" stop-color="#449782"/>
      <stop offset="1" stop-color="#4578ed"/>
    </linearGradient>
  </defs>
  <rect class="st0" width="100" height="100" rx="16" ry="16"/>
  <path class="st1" d="M74.05,73.08c2.27,0,4.26-.61,5.98-1.84,1.77-1.22,2.65-3.06,2.65-5.51s-.95-4.4-2.86-5.71c-1.86-1.31-4.53-2.45-8.02-3.4-3.44-1-5.96-1.86-7.55-2.58-1.54-.73-3.01-1.68-4.42-2.86-2.81-2.36-4.22-6.01-4.22-10.95,0-4.03,1.43-7.5,4.28-10.4,2.9-2.9,6.84-4.35,11.83-4.35,2.4,0,4.9.36,7.48,1.09,2.63.68,4.26,1.02,4.9,1.02s1.2-.45,1.7-1.36h.75l.48,13.73h-1.09c-2.18-3.94-4.46-7.09-6.87-9.45-2.36-2.4-4.94-3.6-7.75-3.6s-4.92.66-6.46,1.97c-1.54,1.27-2.31,2.99-2.31,5.17s.91,3.78,2.72,4.96c1.86,1.13,4.12,2.06,6.8,2.79,2.67.73,4.42,1.22,5.24,1.5.86.27,1.9.66,3.13,1.16,1.27.45,2.29.95,3.06,1.5.82.5,1.65,1.16,2.52,1.97.91.77,1.61,1.63,2.11,2.58,1.22,2.18,1.84,4.76,1.84,7.75,0,4.9-1.54,8.84-4.62,11.83-3.04,2.95-7.05,4.42-12.03,4.42-2.58,0-5.55-.34-8.91-1.02-3.31-.68-5.14-1.02-5.51-1.02-.63,0-1.25.68-1.84,2.04h-.95l-.68-16.18h1.16c1.99,3.94,4.53,7.39,7.62,10.33,3.13,2.95,6.41,4.42,9.86,4.42Z"/>
  <path class="st1" d="M50.84,26.24l.68,17.07h-1.29c-1.99-6.03-3.76-10.13-5.3-12.31-1.54-2.22-3.76-3.33-6.66-3.33h-.82v44.74h5.78v1.43h-24.82v-1.43h5.78V27.66h-.88c-2.9,0-5.14,1.16-6.73,3.47-1.59,2.27-3.33,6.32-5.24,12.17h-1.29l.68-17.07h40.12Z"/>
</svg>